<mxfile host="app.diagrams.net" modified="2025-01-15T10:30:00.000Z" agent="5.0" etag="mcp-clean" version="24.7.17">
  <diagram name="MCP Subsystem - Clean Architecture" id="mcp-clean">
    <mxGraphModel dx="1400" dy="900" grid="1" gridSize="10" guides="1" tooltips="1" connect="1" arrows="1" fold="1" page="1" pageScale="1" pageWidth="1400" pageHeight="900" math="0" shadow="0">
      <root>
        <mxCell id="0" />
        <mxCell id="1" parent="0" />
        
        <!-- Title -->
        <mxCell id="title" value="MCP (Model Context Protocol) - Layered Architecture" style="text;html=1;strokeColor=none;fillColor=none;align=center;verticalAlign=middle;whiteSpace=wrap;rounded=0;fontSize=18;fontStyle=1;fontColor=#232F3E;" vertex="1" parent="1">
          <mxGeometry x="350" y="20" width="700" height="30" as="geometry" />
        </mxCell>
        
        <!-- Agent Bayko Container -->
        <mxCell id="bayko-container" value="Agent Bayko Container" style="points=[[0,0],[0.25,0],[0.5,0],[0.75,0],[1,0],[1,0.25],[1,0.5],[1,0.75],[1,1],[0.75,1],[0.5,1],[0.25,1],[0,1],[0,0.75],[0,0.5],[0,0.25]];outlineConnect=0;gradientColor=none;html=1;whiteSpace=wrap;fontSize=16;fontStyle=1;container=1;pointerEvents=0;collapsible=0;recursiveResize=0;shape=mxgraph.aws4.group;grIcon=mxgraph.aws4.group_ec2_instance_contents;strokeColor=#ED7100;fillColor=#FFF8E1;verticalAlign=top;align=left;spacingLeft=30;fontColor=#232F3E;dashed=0;" vertex="1" parent="1">
          <mxGeometry x="50" y="80" width="1300" height="700" as="geometry" />
        </mxCell>
        
        <!-- Layer 1: MCP Core Orchestration -->
        <mxCell id="core-layer" value="MCP Core Orchestration Layer" style="rounded=1;whiteSpace=wrap;html=1;fillColor=#E3F2FD;strokeColor=#1976D2;fontSize=14;fontStyle=1;verticalAlign=top;spacingTop=15;" vertex="1" parent="bayko-container">
          <mxGeometry x="50" y="50" width="1200" height="120" as="geometry" />
        </mxCell>
        
        <mxCell id="mcp-router" value="🔀 MCP Router&#xa;Task Orchestrator" style="sketch=0;outlineConnect=0;fontColor=#232F3E;gradientColor=none;fillColor=#1976D2;strokeColor=none;dashed=0;verticalLabelPosition=bottom;verticalAlign=top;align=center;html=1;fontSize=12;fontStyle=1;aspect=fixed;pointerEvents=1;shape=mxgraph.aws4.ecs_service;" vertex="1" parent="bayko-container">
          <mxGeometry x="200" y="90" width="60" height="60" as="geometry" />
        </mxCell>
        
        <mxCell id="task-queue" value="📋 Task Queue" style="sketch=0;outlineConnect=0;fontColor=#232F3E;gradientColor=none;fillColor=#1976D2;strokeColor=none;dashed=0;verticalLabelPosition=bottom;verticalAlign=top;align=center;html=1;fontSize=12;fontStyle=0;aspect=fixed;pointerEvents=1;shape=mxgraph.aws4.sqs;" vertex="1" parent="bayko-container">
          <mxGeometry x="400" y="90" width="60" height="60" as="geometry" />
        </mxCell>
        
        <mxCell id="state-manager" value="📊 State Manager" style="sketch=0;outlineConnect=0;fontColor=#232F3E;gradientColor=none;fillColor=#1976D2;strokeColor=none;dashed=0;verticalLabelPosition=bottom;verticalAlign=top;align=center;html=1;fontSize=12;fontStyle=0;aspect=fixed;pointerEvents=1;shape=mxgraph.aws4.dynamodb;" vertex="1" parent="bayko-container">
          <mxGeometry x="600" y="90" width="60" height="60" as="geometry" />
        </mxCell>
        
        <mxCell id="resource-pool" value="🏊 Resource Pool" style="sketch=0;outlineConnect=0;fontColor=#232F3E;gradientColor=none;fillColor=#1976D2;strokeColor=none;dashed=0;verticalLabelPosition=bottom;verticalAlign=top;align=center;html=1;fontSize=12;fontStyle=0;aspect=fixed;pointerEvents=1;shape=mxgraph.aws4.elastic_container_service;" vertex="1" parent="bayko-container">
          <mxGeometry x="800" y="90" width="60" height="60" as="geometry" />
        </mxCell>
        
        <!-- Layer 2: Interface Abstraction -->
        <mxCell id="interface-layer" value="Tool Interface Abstraction Layer" style="rounded=1;whiteSpace=wrap;html=1;fillColor=#F1F8E9;strokeColor=#689F38;fontSize=14;fontStyle=1;verticalAlign=top;spacingTop=15;" vertex="1" parent="bayko-container">
          <mxGeometry x="50" y="200" width="1200" height="80" as="geometry" />
        </mxCell>
        
        <mxCell id="interface-note" value="Unified API Gateway for all tool categories" style="text;html=1;strokeColor=none;fillColor=none;align=center;verticalAlign=middle;whiteSpace=wrap;rounded=0;fontSize=11;fontColor=#689F38;fontStyle=2;" vertex="1" parent="bayko-container">
          <mxGeometry x="500" y="240" width="300" height="20" as="geometry" />
        </mxCell>
        
        <!-- Layer 3: Tool Categories -->
        <mxCell id="tools-layer" value="Tool Implementation Categories" style="rounded=1;whiteSpace=wrap;html=1;fillColor=#FFF8E1;strokeColor=#FFC107;fontSize=14;fontStyle=1;verticalAlign=top;spacingTop=15;" vertex="1" parent="bayko-container">
          <mxGeometry x="50" y="310" width="1200" height="300" as="geometry" />
        </mxCell>
        
        <!-- Language Processing Category -->
        <mxCell id="lang-category" value="Language Processing" style="rounded=1;whiteSpace=wrap;html=1;fillColor=#FFF3E0;strokeColor=#FF9800;fontSize=12;fontStyle=1;verticalAlign=top;spacingTop=10;" vertex="1" parent="bayko-container">
          <mxGeometry x="100" y="350" width="250" height="200" as="geometry" />
        </mxCell>
        
        <mxCell id="openai" value="OpenAI GPT" style="sketch=0;outlineConnect=0;fontColor=#232F3E;gradientColor=none;fillColor=#FF9800;strokeColor=none;dashed=0;verticalLabelPosition=bottom;verticalAlign=top;align=center;html=1;fontSize=10;fontStyle=0;aspect=fixed;pointerEvents=1;shape=mxgraph.aws4.lambda;" vertex="1" parent="bayko-container">
          <mxGeometry x="130" y="390" width="40" height="40" as="geometry" />
        </mxCell>
        
        <mxCell id="claude" value="Claude" style="sketch=0;outlineConnect=0;fontColor=#232F3E;gradientColor=none;fillColor=#FF9800;strokeColor=none;dashed=0;verticalLabelPosition=bottom;verticalAlign=top;align=center;html=1;fontSize=10;fontStyle=0;aspect=fixed;pointerEvents=1;shape=mxgraph.aws4.lambda;" vertex="1" parent="bayko-container">
          <mxGeometry x="200" y="390" width="40" height="40" as="geometry" />
        </mxCell>
        
        <mxCell id="llama" value="Llama" style="sketch=0;outlineConnect=0;fontColor=#232F3E;gradientColor=none;fillColor=#FF9800;strokeColor=none;dashed=0;verticalLabelPosition=bottom;verticalAlign=top;align=center;html=1;fontSize=10;fontStyle=0;aspect=fixed;pointerEvents=1;shape=mxgraph.aws4.lambda;" vertex="1" parent="bayko-container">
          <mxGeometry x="270" y="390" width="40" height="40" as="geometry" />
        </mxCell>
        
        <mxCell id="lang-features" value="Text Generation, Code Analysis, Content Summarization, Language Translation" style="text;html=1;strokeColor=none;fillColor=none;align=left;verticalAlign=top;whiteSpace=wrap;rounded=0;fontSize=9;fontColor=#FF9800;" vertex="1" parent="bayko-container">
          <mxGeometry x="110" y="450" width="220" height="80" as="geometry" />
        </mxCell>
        
        <!-- Data Processing Category -->
        <mxCell id="data-category" value="Data Processing" style="rounded=1;whiteSpace=wrap;html=1;fillColor=#FCE4EC;strokeColor=#E91E63;fontSize=12;fontStyle=1;verticalAlign=top;spacingTop=10;" vertex="1" parent="bayko-container">
          <mxGeometry x="380" y="350" width="250" height="200" as="geometry" />
        </mxCell>
        
        <mxCell id="data-analyzer" value="Data Analyzer" style="sketch=0;outlineConnect=0;fontColor=#232F3E;gradientColor=none;fillColor=#E91E63;strokeColor=none;dashed=0;verticalLabelPosition=bottom;verticalAlign=top;align=center;html=1;fontSize=10;fontStyle=0;aspect=fixed;pointerEvents=1;shape=mxgraph.aws4.sagemaker;" vertex="1" parent="bayko-container">
          <mxGeometry x="410" y="390" width="40" height="40" as="geometry" />
        </mxCell>
        
        <mxCell id="report-gen" value="Report Gen" style="sketch=0;outlineConnect=0;fontColor=#232F3E;gradientColor=none;fillColor=#E91E63;strokeColor=none;dashed=0;verticalLabelPosition=bottom;verticalAlign=top;align=center;html=1;fontSize=10;fontStyle=0;aspect=fixed;pointerEvents=1;shape=mxgraph.aws4.sagemaker;" vertex="1" parent="bayko-container">
          <mxGeometry x="480" y="390" width="40" height="40" as="geometry" />
        </mxCell>
        
        <mxCell id="doc-proc" value="Doc Processor" style="sketch=0;outlineConnect=0;fontColor=#232F3E;gradientColor=none;fillColor=#E91E63;strokeColor=none;dashed=0;verticalLabelPosition=bottom;verticalAlign=top;align=center;html=1;fontSize=10;fontStyle=0;aspect=fixed;pointerEvents=1;shape=mxgraph.aws4.sagemaker;" vertex="1" parent="bayko-container">
          <mxGeometry x="550" y="390" width="40" height="40" as="geometry" />
        </mxCell>
        
        <mxCell id="data-features" value="Statistical Analysis, Report Generation, Document Processing, Data Transformation" style="text;html=1;strokeColor=none;fillColor=none;align=left;verticalAlign=top;whiteSpace=wrap;rounded=0;fontSize=9;fontColor=#E91E63;" vertex="1" parent="bayko-container">
          <mxGeometry x="390" y="450" width="220" height="80" as="geometry" />
        </mxCell>
        
        <!-- Quality Assurance Category -->
        <mxCell id="quality-category" value="Quality Assurance" style="rounded=1;whiteSpace=wrap;html=1;fillColor=#E0F2F1;strokeColor=#009688;fontSize=12;fontStyle=1;verticalAlign=top;spacingTop=10;" vertex="1" parent="bayko-container">
          <mxGeometry x="660" y="350" width="250" height="200" as="geometry" />
        </mxCell>
        
        <mxCell id="quality-checker" value="Quality Check" style="sketch=0;outlineConnect=0;fontColor=#232F3E;gradientColor=none;fillColor=#009688;strokeColor=none;dashed=0;verticalLabelPosition=bottom;verticalAlign=top;align=center;html=1;fontSize=10;fontStyle=0;aspect=fixed;pointerEvents=1;shape=mxgraph.aws4.cloudwatch;" vertex="1" parent="bayko-container">
          <mxGeometry x="690" y="390" width="40" height="40" as="geometry" />
        </mxCell>
        
        <mxCell id="compliance" value="Compliance" style="sketch=0;outlineConnect=0;fontColor=#232F3E;gradientColor=none;fillColor=#009688;strokeColor=none;dashed=0;verticalLabelPosition=bottom;verticalAlign=top;align=center;html=1;fontSize=10;fontStyle=0;aspect=fixed;pointerEvents=1;shape=mxgraph.aws4.cloudwatch;" vertex="1" parent="bayko-container">
          <mxGeometry x="760" y="390" width="40" height="40" as="geometry" />
        </mxCell>
        
        <mxCell id="format-conv" value="Format Conv" style="sketch=0;outlineConnect=0;fontColor=#232F3E;gradientColor=none;fillColor=#009688;strokeColor=none;dashed=0;verticalLabelPosition=bottom;verticalAlign=top;align=center;html=1;fontSize=10;fontStyle=0;aspect=fixed;pointerEvents=1;shape=mxgraph.aws4.cloudwatch;" vertex="1" parent="bayko-container">
          <mxGeometry x="830" y="390" width="40" height="40" as="geometry" />
        </mxCell>
        
        <mxCell id="quality-features" value="Output Validation, Compliance Checking, Format Conversion, Quality Scoring" style="text;html=1;strokeColor=none;fillColor=none;align=left;verticalAlign=top;whiteSpace=wrap;rounded=0;fontSize=9;fontColor=#009688;" vertex="1" parent="bayko-container">
          <mxGeometry x="670" y="450" width="220" height="80" as="geometry" />
        </mxCell>
        
        <!-- Utilities Category -->
        <mxCell id="util-category" value="System Utilities" style="rounded=1;whiteSpace=wrap;html=1;fillColor=#F3E5F5;strokeColor=#9C27B0;fontSize=12;fontStyle=1;verticalAlign=top;spacingTop=10;" vertex="1" parent="bayko-container">
          <mxGeometry x="940" y="350" width="250" height="200" as="geometry" />
        </mxCell>
        
        <mxCell id="metadata-ext" value="Metadata" style="sketch=0;outlineConnect=0;fontColor=#232F3E;gradientColor=none;fillColor=#9C27B0;strokeColor=none;dashed=0;verticalLabelPosition=bottom;verticalAlign=top;align=center;html=1;fontSize=10;fontStyle=0;aspect=fixed;pointerEvents=1;shape=mxgraph.aws4.s3;" vertex="1" parent="bayko-container">
          <mxGeometry x="970" y="390" width="40" height="40" as="geometry" />
        </mxCell>
        
        <mxCell id="output-asm" value="Assembler" style="sketch=0;outlineConnect=0;fontColor=#232F3E;gradientColor=none;fillColor=#9C27B0;strokeColor=none;dashed=0;verticalLabelPosition=bottom;verticalAlign=top;align=center;html=1;fontSize=10;fontStyle=0;aspect=fixed;pointerEvents=1;shape=mxgraph.aws4.s3;" vertex="1" parent="bayko-container">
          <mxGeometry x="1040" y="390" width="40" height="40" as="geometry" />
        </mxCell>
        
        <mxCell id="perf-mon" value="Monitor" style="sketch=0;outlineConnect=0;fontColor=#232F3E;gradientColor=none;fillColor=#9C27B0;strokeColor=none;dashed=0;verticalLabelPosition=bottom;verticalAlign=top;align=center;html=1;fontSize=10;fontStyle=0;aspect=fixed;pointerEvents=1;shape=mxgraph.aws4.s3;" vertex="1" parent="bayko-container">
          <mxGeometry x="1110" y="390" width="40" height="40" as="geometry" />
        </mxCell>
        
        <mxCell id="util-features" value="Metadata Extraction, Output Assembly, Performance Monitoring, System Utilities" style="text;html=1;strokeColor=none;fillColor=none;align=left;verticalAlign=top;whiteSpace=wrap;rounded=0;fontSize=9;fontColor=#9C27B0;" vertex="1" parent="bayko-container">
          <mxGeometry x="950" y="450" width="220" height="80" as="geometry" />
        </mxCell>
        
        <!-- Clean Flow Arrows -->
        <mxCell id="core-flow" value="Task Flow" style="endArrow=classic;html=1;rounded=0;strokeColor=#1976D2;strokeWidth=3;labelBackgroundColor=#ffffff;" edge="1" parent="bayko-container">
          <mxGeometry width="50" height="50" relative="1" as="geometry">
            <mxPoint x="200" y="120" as="sourcePoint" />
            <mxPoint x="800" y="120" as="targetPoint" />
          </mxGeometry>
        </mxCell>
        
        <mxCell id="interface-flow" value="Unified Interface" style="endArrow=classic;html=1;rounded=0;strokeColor=#689F38;strokeWidth=3;labelBackgroundColor=#ffffff;" edge="1" parent="bayko-container">
          <mxGeometry width="50" height="50" relative="1" as="geometry">
            <mxPoint x="650" y="170" as="sourcePoint" />
            <mxPoint x="650" y="200" as="targetPoint" />
          </mxGeometry>
        </mxCell>
        
        <mxCell id="tool-dispatch" value="Tool Dispatch" style="endArrow=classic;html=1;rounded=0;strokeColor=#FFC107;strokeWidth=3;labelBackgroundColor=#ffffff;" edge="1" parent="bayko-container">
          <mxGeometry width="50" height="50" relative="1" as="geometry">
            <mxPoint x="650" y="280" as="sourcePoint" />
            <mxPoint x="650" y="310" as="targetPoint" />
          </mxGeometry>
        </mxCell>
        
        <!-- External I/O -->
        <mxCell id="input-section" value="Input" style="rounded=1;whiteSpace=wrap;html=1;fillColor=#E8F5E8;strokeColor=#4CAF50;fontSize=14;fontStyle=1;verticalAlign=top;spacingTop=10;" vertex="1" parent="1">
          <mxGeometry x="50" y="800" width="200" height="80" as="geometry" />
        </mxCell>
        
        <mxCell id="task-config" value="📝 task_config.json" style="sketch=0;outlineConnect=0;fontColor=#232F3E;gradientColor=none;fillColor=#4CAF50;strokeColor=none;dashed=0;verticalLabelPosition=bottom;verticalAlign=top;align=center;html=1;fontSize=10;fontStyle=0;aspect=fixed;pointerEvents=1;shape=mxgraph.aws4.s3;" vertex="1" parent="1">
          <mxGeometry x="80" y="830" width="40" height="40" as="geometry" />
        </mxCell>
        
        <mxCell id="user-prefs" value="⚙️ Profile" style="sketch=0;outlineConnect=0;fontColor=#232F3E;gradientColor=none;fillColor=#4CAF50;strokeColor=none;dashed=0;verticalLabelPosition=bottom;verticalAlign=top;align=center;html=1;fontSize=10;fontStyle=0;aspect=fixed;pointerEvents=1;shape=mxgraph.aws4.iam;" vertex="1" parent="1">
          <mxGeometry x="170" y="830" width="40" height="40" as="geometry" />
        </mxCell>
        
        <mxCell id="output-section" value="Output" style="rounded=1;whiteSpace=wrap;html=1;fillColor=#E0F2F1;strokeColor=#009688;fontSize=14;fontStyle=1;verticalAlign=top;spacingTop=10;" vertex="1" parent="1">
          <mxGeometry x="1150" y="800" width="200" height="80" as="geometry" />
        </mxCell>
        
        <mxCell id="output-payload" value="📦 Payload" style="sketch=0;outlineConnect=0;fontColor=#232F3E;gradientColor=none;fillColor=#009688;strokeColor=none;dashed=0;verticalLabelPosition=bottom;verticalAlign=top;align=center;html=1;fontSize=10;fontStyle=0;aspect=fixed;pointerEvents=1;shape=mxgraph.aws4.s3;" vertex="1" parent="1">
          <mxGeometry x="1180" y="830" width="40" height="40" as="geometry" />
        </mxCell>
        
        <mxCell id="logs-output" value="📊 Logs" style="sketch=0;outlineConnect=0;fontColor=#232F3E;gradientColor=none;fillColor=#009688;strokeColor=none;dashed=0;verticalLabelPosition=bottom;verticalAlign=top;align=center;html=1;fontSize=10;fontStyle=0;aspect=fixed;pointerEvents=1;shape=mxgraph.aws4.cloudwatch;" vertex="1" parent="1">
          <mxGeometry x="1270" y="830" width="40" height="40" as="geometry" />
        </mxCell>
        
        <!-- I/O Flows -->
        <mxCell id="input-flow" value="" style="endArrow=classic;html=1;rounded=0;strokeColor=#4CAF50;strokeWidth=2;" edge="1" parent="1">
          <mxGeometry width="50" height="50" relative="1" as="geometry">
            <mxPoint x="150" y="800" as="sourcePoint" />
            <mxPoint x="280" y="200" as="targetPoint" />
          </mxGeometry>
        </mxCell>
        
        <mxCell id="output-flow" value="" style="endArrow=classic;html=1;rounded=0;strokeColor=#009688;strokeWidth=2;" edge="1" parent="1">
          <mxGeometry width="50" height="50" relative="1" as="geometry">
            <mxPoint x="1120" y="200" as="sourcePoint" />
            <mxPoint x="1250" y="800" as="targetPoint" />
          </mxGeometry>
        </mxCell>
        
        <!-- Key Benefits -->
        <mxCell id="benefits" value="Architecture Benefits: Clean Separation of Concerns, Unified Interface Layer, Category-Based Organization, Minimal Connection Complexity, Easy to Extend and Maintain" style="rounded=1;whiteSpace=wrap;html=1;fillColor=#FFF8E1;strokeColor=#FFC107;fontSize=11;fontStyle=0;align=left;verticalAlign=top;spacingTop=10;spacingLeft=10;" vertex="1" parent="1">
          <mxGeometry x="600" y="800" width="300" height="120" as="geometry" />
        </mxCell>
        
      </root>
    </mxGraphModel>
  </diagram>
</mxfile>